# Blender 4.3.2
# www.blender.org
mtllib mtl/pawn.mtl
o PrimaryWhitePawn.007
v 0.000001 6.323977 -0.426096
v 0.000001 5.513493 -0.689438
v 0.301296 6.323977 -0.301296
v 0.487507 5.961517 -0.487507
v 0.487507 5.513493 -0.487507
v 0.426097 6.323977 0.000000
v 0.689439 5.961517 0.000000
v 0.689439 5.513493 0.000000
v 0.301296 6.323977 0.301296
v 0.487507 5.961517 0.487507
v 0.487507 5.513493 0.487507
v 0.301296 5.151033 0.301296
v 0.000001 6.323977 0.426096
v 0.000001 5.961517 0.689439
v 0.000001 5.513493 0.689439
v 0.000001 5.151033 0.426096
v 0.000001 6.462423 0.000000
v -0.301295 6.323977 0.301296
v -0.487506 5.961517 0.487507
v -0.487506 5.513493 0.487507
v -0.301295 5.151033 0.301296
v -0.426096 6.323977 0.000000
v -0.689438 5.961517 0.000000
v -0.689438 5.513493 0.000000
v -0.426096 5.151033 0.000000
v -0.301295 6.323977 -0.301296
v -0.487506 5.961517 -0.487507
v -0.487506 5.513493 -0.487507
v -0.301295 5.151033 -0.301296
v 0.000001 5.961517 -0.689438
v 0.000001 2.000000 -1.500000
v 0.000001 3.248326 -0.767285
v 1.060661 2.000000 -1.060660
v 0.542553 3.248326 -0.542553
v 1.500001 2.000000 -0.000000
v 0.767286 3.248326 -0.000000
v 1.060661 2.000000 1.060660
v 0.542553 3.248326 0.542552
v 0.000000 2.000000 1.500000
v 0.000001 3.248326 0.767285
v -1.060660 2.000000 1.060660
v -0.542552 3.248326 0.542552
v -1.499999 2.000000 -0.000001
v -0.767284 3.248326 -0.000001
v -1.060658 2.000000 -1.060662
v -0.542551 3.248326 -0.542553
v 0.000001 3.077780 -0.920889
v 0.000001 3.175758 -0.913736
v 0.646109 3.175758 -0.646109
v 0.651167 3.077780 -0.651167
v 0.913736 3.175758 -0.000000
v 0.920890 3.077780 -0.000000
v 0.646109 3.175758 0.646108
v 0.651167 3.077780 0.651166
v 0.000000 3.175758 0.913735
v 0.000000 3.077780 0.920889
v -0.646108 3.175758 0.646108
v -0.651166 3.077780 0.651166
v -0.913735 3.175758 -0.000001
v -0.920888 3.077780 -0.000001
v -0.646107 3.175758 -0.646110
v -0.651165 3.077780 -0.651168
v 0.000001 2.160689 -1.494586
v 1.056833 2.160689 -1.056832
v 1.494587 2.160689 -0.000000
v 1.056833 2.160689 1.056832
v 0.000000 2.160689 1.494586
v -1.056832 2.160689 1.056831
v -1.494586 2.160689 -0.000001
v -1.056830 2.160689 -1.056833
v 0.000001 2.648443 -1.386380
v 0.980319 2.648443 -0.980319
v 1.386381 2.648443 -0.000000
v 0.980319 2.648443 0.980319
v 0.000000 2.648443 1.386380
v -0.980319 2.648443 0.980318
v -1.386379 2.648443 -0.000001
v -0.980317 2.648443 -0.980320
v 0.000001 2.428504 -1.210957
v 0.856276 2.428504 -0.856276
v 1.210957 2.428504 -0.000000
v 0.856276 2.428504 0.856275
v 0.000000 2.428504 1.210956
v -0.856275 2.428504 0.856275
v -1.210956 2.428504 -0.000001
v -0.856274 2.428504 -0.856277
v 0.000001 5.151033 -0.426096
v 0.301296 5.151033 -0.301295
v 0.426096 5.151033 -0.000000
v 0.000001 4.794524 -0.520084
v 0.000001 4.908154 -0.878190
v 0.620975 4.908154 -0.620974
v 0.367755 4.794524 -0.367755
v -0.520082 4.794524 -0.000001
v -0.878189 4.908154 -0.000001
v -0.620972 4.908154 -0.620975
v -0.367753 4.794524 -0.367755
v 0.367755 4.794524 0.367754
v 0.620975 4.908154 0.620974
v 0.000000 4.908154 0.878190
v 0.000001 4.794524 0.520083
v 0.520084 4.794524 -0.000000
v 0.878191 4.908154 -0.000000
v -0.620974 4.908154 0.620973
v -0.367754 4.794524 0.367754
s 0
usemtl White_Piece
f 2 30 4 5
f 1 17 3
f 87 2 5 88
f 30 1 3 4
f 88 5 8 89
f 4 3 6 7
f 5 4 7 8
f 3 17 6
f 89 8 11 12
f 7 6 9 10
f 8 7 10 11
f 6 17 9
f 12 11 15 16
f 10 9 13 14
f 11 10 14 15
f 9 17 13
f 16 15 20 21
f 14 13 18 19
f 15 14 19 20
f 13 17 18
f 21 20 24 25
f 19 18 22 23
f 20 19 23 24
f 18 17 22
f 25 24 28 29
f 23 22 26 27
f 89 12 16 21 25 29 87 88
f 24 23 27 28
f 22 17 26
f 29 28 2 87
f 27 26 1 30
f 28 27 30 2
f 26 17 1
f 83 75 76 84
f 50 49 51 52
f 86 78 71 79
f 58 76 75 56
f 85 69 68 84
f 48 32 34 49
f 47 48 49 50
f 52 73 72 50
f 56 75 74 54
f 80 64 63 79
f 49 34 36 51
f 80 72 73 81
f 81 73 74 82
f 82 74 75 83
f 82 66 65 81
f 51 36 38 53
f 52 51 53 54
f 79 71 72 80
f 85 77 78 86
f 54 53 55 56
f 53 38 40 55
f 39 41 43 45 31 33 35 37
f 92 91 87 88
f 84 76 77 85
f 62 78 77 60
f 56 55 57 58
f 37 66 67 39
f 55 40 42 57
f 39 67 68 41
f 33 64 65 35
f 35 65 66 37
f 50 72 71 47
f 58 57 59 60
f 57 42 44 59
f 45 70 63 31
f 41 68 69 43
f 31 63 64 33
f 43 69 70 45
f 54 74 73 52
f 60 59 61 62
f 59 44 46 61
f 79 63 70 86
f 81 65 64 80
f 47 71 78 62
f 62 61 48 47
f 84 68 67 83
f 61 46 32 48
f 86 70 69 85
f 60 77 76 58
f 83 67 66 82
f 96 95 25 29
f 100 99 12 16
f 99 103 89 12
f 104 100 16 21
f 91 96 29 87
f 95 104 21 25
f 103 92 88 89
f 102 93 92 103
f 38 98 101 40
f 94 105 104 95
f 90 97 96 91
f 44 94 97 46
f 42 105 94 44
f 105 101 100 104
f 34 93 102 36
f 46 97 90 32
f 98 102 103 99
f 36 102 98 38
f 32 90 93 34
f 101 98 99 100
f 40 101 105 42
f 97 94 95 96
f 93 90 91 92
