# Blender 4.3.2
# www.blender.org
mtllib mtl/torus.mtl
o Torus.001
v 1.250000 0.000000 0.000000
v 1.125000 0.216506 0.000000
v 0.875000 0.216506 0.000000
v 0.750000 0.000000 0.000000
v 0.875000 -0.216506 0.000000
v 1.125000 -0.216506 0.000000
v 1.154849 0.000000 -0.478354
v 1.039364 0.216506 -0.430519
v 0.808395 0.216506 -0.334848
v 0.692910 0.000000 -0.287013
v 0.808395 -0.216506 -0.334848
v 1.039364 -0.216506 -0.430519
v 0.883883 0.000000 -0.883884
v 0.795495 0.216506 -0.795495
v 0.618718 0.216506 -0.618719
v 0.530330 0.000000 -0.530330
v 0.618718 -0.216506 -0.618719
v 0.795495 -0.216506 -0.795495
v 0.478355 0.000000 -1.154849
v 0.430519 0.216506 -1.039364
v 0.334848 0.216506 -0.808394
v 0.287013 0.000000 -0.692910
v 0.334848 -0.216506 -0.808394
v 0.430519 -0.216506 -1.039364
v 0.000000 0.000000 -1.250000
v 0.000000 0.216506 -1.125000
v 0.000000 0.216506 -0.875000
v 0.000000 0.000000 -0.750000
v 0.000000 -0.216506 -0.875000
v 0.000000 -0.216506 -1.125000
v -0.478354 0.000000 -1.154849
v -0.430519 0.216506 -1.039364
v -0.334848 0.216506 -0.808395
v -0.287013 0.000000 -0.692910
v -0.334848 -0.216506 -0.808395
v -0.430519 -0.216506 -1.039364
v -0.883884 0.000000 -0.883883
v -0.795495 0.216506 -0.795495
v -0.618719 0.216506 -0.618718
v -0.530330 0.000000 -0.530330
v -0.618719 -0.216506 -0.618718
v -0.795495 -0.216506 -0.795495
v -1.154849 0.000000 -0.478354
v -1.039364 0.216506 -0.430519
v -0.808395 0.216506 -0.334848
v -0.692910 0.000000 -0.287013
v -0.808395 -0.216506 -0.334848
v -1.039364 -0.216506 -0.430519
v -1.250000 0.000000 -0.000000
v -1.125000 0.216506 -0.000000
v -0.875000 0.216506 -0.000000
v -0.750000 0.000000 -0.000000
v -0.875000 -0.216506 -0.000000
v -1.125000 -0.216506 -0.000000
v -1.154850 0.000000 0.478354
v -1.039365 0.216506 0.430518
v -0.808395 0.216506 0.334848
v -0.692910 0.000000 0.287012
v -0.808395 -0.216506 0.334848
v -1.039365 -0.216506 0.430518
v -0.883884 0.000000 0.883883
v -0.795495 0.216506 0.795495
v -0.618719 0.216506 0.618718
v -0.530330 0.000000 0.530330
v -0.618719 -0.216506 0.618718
v -0.795495 -0.216506 0.795495
v -0.478354 0.000000 1.154849
v -0.430519 0.216506 1.039364
v -0.334848 0.216506 0.808395
v -0.287013 0.000000 0.692910
v -0.334848 -0.216506 0.808395
v -0.430519 -0.216506 1.039364
v 0.000000 0.000000 1.250000
v 0.000000 0.216506 1.125000
v 0.000000 0.216506 0.875000
v 0.000000 0.000000 0.750000
v 0.000000 -0.216506 0.875000
v 0.000000 -0.216506 1.125000
v 0.478355 0.000000 1.154849
v 0.430519 0.216506 1.039364
v 0.334848 0.216506 0.808394
v 0.287013 0.000000 0.692910
v 0.334848 -0.216506 0.808394
v 0.430519 -0.216506 1.039364
v 0.883883 0.000000 0.883884
v 0.795495 0.216506 0.795496
v 0.618718 0.216506 0.618719
v 0.530330 0.000000 0.530330
v 0.618718 -0.216506 0.618719
v 0.795495 -0.216506 0.795496
v 1.154849 0.000000 0.478355
v 1.039364 0.216506 0.430519
v 0.808394 0.216506 0.334848
v 0.692910 0.000000 0.287013
v 0.808394 -0.216506 0.334848
v 1.039364 -0.216506 0.430519
s 0
f 1 7 8 2
f 2 8 9 3
f 3 9 10 4
f 4 10 11 5
f 5 11 12 6
f 6 12 7 1
f 7 13 14 8
f 8 14 15 9
f 9 15 16 10
f 10 16 17 11
f 11 17 18 12
f 12 18 13 7
f 13 19 20 14
f 14 20 21 15
f 15 21 22 16
f 16 22 23 17
f 17 23 24 18
f 18 24 19 13
f 19 25 26 20
f 20 26 27 21
f 21 27 28 22
f 22 28 29 23
f 23 29 30 24
f 24 30 25 19
f 25 31 32 26
f 26 32 33 27
f 27 33 34 28
f 28 34 35 29
f 29 35 36 30
f 30 36 31 25
f 31 37 38 32
f 32 38 39 33
f 33 39 40 34
f 34 40 41 35
f 35 41 42 36
f 36 42 37 31
f 37 43 44 38
f 38 44 45 39
f 39 45 46 40
f 40 46 47 41
f 41 47 48 42
f 42 48 43 37
f 43 49 50 44
f 44 50 51 45
f 45 51 52 46
f 46 52 53 47
f 47 53 54 48
f 48 54 49 43
f 49 55 56 50
f 50 56 57 51
f 51 57 58 52
f 52 58 59 53
f 53 59 60 54
f 54 60 55 49
f 55 61 62 56
f 56 62 63 57
f 57 63 64 58
f 58 64 65 59
f 59 65 66 60
f 60 66 61 55
f 61 67 68 62
f 62 68 69 63
f 63 69 70 64
f 64 70 71 65
f 65 71 72 66
f 66 72 67 61
f 67 73 74 68
f 68 74 75 69
f 69 75 76 70
f 70 76 77 71
f 71 77 78 72
f 72 78 73 67
f 73 79 80 74
f 74 80 81 75
f 75 81 82 76
f 76 82 83 77
f 77 83 84 78
f 78 84 79 73
f 79 85 86 80
f 80 86 87 81
f 81 87 88 82
f 82 88 89 83
f 83 89 90 84
f 84 90 85 79
f 85 91 92 86
f 86 92 93 87
f 87 93 94 88
f 88 94 95 89
f 89 95 96 90
f 90 96 91 85
f 91 1 2 92
f 92 2 3 93
f 93 3 4 94
f 94 4 5 95
f 95 5 6 96
f 96 6 1 91
